<?xml version="1.0" standalone="no"?>
<!DOCTYPE svg PUBLIC "-//W3C//DTD SVG 20010904//EN"
 "http://www.w3.org/TR/2001/REC-SVG-20010904/DTD/svg10.dtd">
<svg version="1.0" xmlns="http://www.w3.org/2000/svg"
 width="512.000000pt" height="512.000000pt" viewBox="0 0 512.000000 512.000000"
 preserveAspectRatio="xMidYMid meet">

<g transform="translate(0.000000,512.000000) scale(0.100000,-0.100000)"
fill="#000000" stroke="none">
<path d="M1690 5060 c-428 -66 -785 -245 -1085 -545 -536 -537 -708 -1326
-443 -2040 309 -833 1166 -1353 2045 -1240 341 44 640 167 949 390 10 7 34
-11 97 -73 l84 -83 -20 -57 c-26 -78 -21 -197 13 -267 19 -39 134 -160 520
-548 573 -576 555 -562 715 -562 134 0 184 28 342 187 155 157 178 200 178
333 0 158 22 129 -548 702 -562 564 -550 554 -691 561 -62 3 -94 0 -138 -15
l-57 -20 -83 84 c-62 63 -80 87 -73 97 272 376 405 766 405 1186 0 734 -420
1407 -1085 1738 -324 161 -763 228 -1125 172z m490 -351 c518 -66 966 -391
1208 -875 49 -98 111 -294 132 -422 24 -142 26 -366 5 -495 -62 -379 -242
-708 -520 -950 -293 -254 -645 -386 -1033 -387 -606 -1 -1142 331 -1415 877
-160 320 -202 726 -112 1083 124 496 509 919 988 1090 244 87 486 112 747 79z"/>
<path d="M918 3545 c-88 -188 -120 -371 -100 -562 31 -279 138 -494 344 -689
280 -264 702 -354 1071 -230 78 26 187 78 241 115 l29 20 -139 0 c-227 0 -408
42 -609 140 -398 195 -681 564 -760 992 -9 48 -19 138 -23 200 l-7 113 -47
-99z"/>
</g>
</svg>
